<mxfile host="app.diagrams.net" modified="2020-12-18T08:03:38.216Z" agent="5.0 (Windows NT 10.0; Win64; x64) AppleWebKit/537.36 (KHTML, like Gecko) Chrome/87.0.4280.88 Safari/537.36" etag="7o-4jvpr_wtQDpiNN-9L" version="14.0.4" type="github">
  <diagram id="I5rOKLDulZHCpnhm8ujL" name="Page-1">
    <mxGraphModel dx="2062" dy="2266" grid="1" gridSize="10" guides="1" tooltips="1" connect="1" arrows="1" fold="1" page="1" pageScale="1" pageWidth="827" pageHeight="1169" math="0" shadow="0">
      <root>
        <mxCell id="0" />
        <mxCell id="1" parent="0" />
        <mxCell id="sc7NBBc9Ih7PNJdXrNAd-4" style="edgeStyle=orthogonalEdgeStyle;rounded=0;orthogonalLoop=1;jettySize=auto;html=1;entryX=0.5;entryY=0;entryDx=0;entryDy=0;" edge="1" parent="1" source="PuVu6NG7NU4pwUDtO6sR-25" target="sc7NBBc9Ih7PNJdXrNAd-2">
          <mxGeometry relative="1" as="geometry" />
        </mxCell>
        <mxCell id="PuVu6NG7NU4pwUDtO6sR-25" value="" style="ellipse;fillColor=#000000;strokeColor=none;" parent="1" vertex="1">
          <mxGeometry x="383" y="-70" width="30" height="30" as="geometry" />
        </mxCell>
        <mxCell id="PuVu6NG7NU4pwUDtO6sR-27" value="" style="endArrow=classic;html=1;" parent="1" edge="1">
          <mxGeometry width="50" height="50" relative="1" as="geometry">
            <mxPoint x="397.41" y="50" as="sourcePoint" />
            <mxPoint x="397" y="90" as="targetPoint" />
          </mxGeometry>
        </mxCell>
        <mxCell id="PuVu6NG7NU4pwUDtO6sR-28" value="관리기능 선택" style="rounded=1;whiteSpace=wrap;html=1;" parent="1" vertex="1">
          <mxGeometry x="353" y="90" width="97" height="50" as="geometry" />
        </mxCell>
        <mxCell id="XZJDbcIrMMWmVMv7A3Kb-3" style="edgeStyle=orthogonalEdgeStyle;rounded=0;orthogonalLoop=1;jettySize=auto;html=1;entryX=0.5;entryY=0;entryDx=0;entryDy=0;exitX=1;exitY=0.5;exitDx=0;exitDy=0;" parent="1" source="sc7NBBc9Ih7PNJdXrNAd-2" target="XZJDbcIrMMWmVMv7A3Kb-1" edge="1">
          <mxGeometry relative="1" as="geometry">
            <mxPoint x="480" y="60" as="sourcePoint" />
          </mxGeometry>
        </mxCell>
        <mxCell id="PuVu6NG7NU4pwUDtO6sR-29" value="" style="rhombus;whiteSpace=wrap;html=1;" parent="1" vertex="1">
          <mxGeometry x="368.5" y="180" width="59" height="60" as="geometry" />
        </mxCell>
        <mxCell id="PuVu6NG7NU4pwUDtO6sR-31" value="" style="endArrow=classic;html=1;" parent="1" edge="1">
          <mxGeometry width="50" height="50" relative="1" as="geometry">
            <mxPoint x="397.8200000000001" y="140" as="sourcePoint" />
            <mxPoint x="397.41" y="180" as="targetPoint" />
          </mxGeometry>
        </mxCell>
        <mxCell id="PuVu6NG7NU4pwUDtO6sR-32" value="" style="endArrow=classic;html=1;entryX=0.5;entryY=0;entryDx=0;entryDy=0;" parent="1" target="PuVu6NG7NU4pwUDtO6sR-36" edge="1">
          <mxGeometry width="50" height="50" relative="1" as="geometry">
            <mxPoint x="427.5" y="210" as="sourcePoint" />
            <mxPoint x="560" y="210" as="targetPoint" />
            <Array as="points">
              <mxPoint x="588" y="210" />
            </Array>
          </mxGeometry>
        </mxCell>
        <mxCell id="PuVu6NG7NU4pwUDtO6sR-33" value="" style="endArrow=classic;html=1;" parent="1" edge="1">
          <mxGeometry width="50" height="50" relative="1" as="geometry">
            <mxPoint x="397.82000000000016" y="240" as="sourcePoint" />
            <mxPoint x="397.4100000000001" y="280" as="targetPoint" />
          </mxGeometry>
        </mxCell>
        <mxCell id="PuVu6NG7NU4pwUDtO6sR-34" value="" style="endArrow=classic;html=1;entryX=0.5;entryY=0;entryDx=0;entryDy=0;" parent="1" target="PuVu6NG7NU4pwUDtO6sR-37" edge="1">
          <mxGeometry width="50" height="50" relative="1" as="geometry">
            <mxPoint x="368.5" y="209.41" as="sourcePoint" />
            <mxPoint x="236" y="209.41" as="targetPoint" />
            <Array as="points">
              <mxPoint x="208" y="209" />
            </Array>
          </mxGeometry>
        </mxCell>
        <mxCell id="PuVu6NG7NU4pwUDtO6sR-35" value="메뉴 선택" style="rounded=1;whiteSpace=wrap;html=1;" parent="1" vertex="1">
          <mxGeometry x="349.5" y="280" width="97" height="50" as="geometry" />
        </mxCell>
        <mxCell id="PuVu6NG7NU4pwUDtO6sR-36" value="메뉴 선택" style="rounded=1;whiteSpace=wrap;html=1;" parent="1" vertex="1">
          <mxGeometry x="540" y="280" width="97" height="50" as="geometry" />
        </mxCell>
        <mxCell id="PuVu6NG7NU4pwUDtO6sR-37" value="메뉴 정보 입력" style="rounded=1;whiteSpace=wrap;html=1;" parent="1" vertex="1">
          <mxGeometry x="160" y="280" width="97" height="50" as="geometry" />
        </mxCell>
        <mxCell id="PuVu6NG7NU4pwUDtO6sR-38" value="[메뉴 추가]" style="text;html=1;strokeColor=none;fillColor=none;align=center;verticalAlign=middle;whiteSpace=wrap;rounded=0;" parent="1" vertex="1">
          <mxGeometry x="240" y="180" width="70" height="20" as="geometry" />
        </mxCell>
        <mxCell id="PuVu6NG7NU4pwUDtO6sR-40" value="[메뉴 삭제]" style="text;html=1;strokeColor=none;fillColor=none;align=center;verticalAlign=middle;whiteSpace=wrap;rounded=0;" parent="1" vertex="1">
          <mxGeometry x="480" y="210" width="70" height="20" as="geometry" />
        </mxCell>
        <mxCell id="PuVu6NG7NU4pwUDtO6sR-41" value="[메뉴 삭제]" style="text;html=1;strokeColor=none;fillColor=none;align=center;verticalAlign=middle;whiteSpace=wrap;rounded=0;" parent="1" vertex="1">
          <mxGeometry x="330" y="250" width="70" height="20" as="geometry" />
        </mxCell>
        <mxCell id="PuVu6NG7NU4pwUDtO6sR-43" value="" style="endArrow=classic;html=1;" parent="1" edge="1">
          <mxGeometry width="50" height="50" relative="1" as="geometry">
            <mxPoint x="397.82000000000016" y="330" as="sourcePoint" />
            <mxPoint x="397.4100000000001" y="370" as="targetPoint" />
          </mxGeometry>
        </mxCell>
        <mxCell id="PuVu6NG7NU4pwUDtO6sR-44" value="메뉴 삭제" style="rounded=1;whiteSpace=wrap;html=1;" parent="1" vertex="1">
          <mxGeometry x="349.5" y="370" width="97" height="50" as="geometry" />
        </mxCell>
        <mxCell id="PuVu6NG7NU4pwUDtO6sR-51" value="" style="edgeStyle=orthogonalEdgeStyle;rounded=0;orthogonalLoop=1;jettySize=auto;html=1;" parent="1" source="PuVu6NG7NU4pwUDtO6sR-45" target="PuVu6NG7NU4pwUDtO6sR-49" edge="1">
          <mxGeometry relative="1" as="geometry" />
        </mxCell>
        <mxCell id="PuVu6NG7NU4pwUDtO6sR-45" value="수정 내용 입력" style="rounded=1;whiteSpace=wrap;html=1;" parent="1" vertex="1">
          <mxGeometry x="540" y="370" width="97" height="50" as="geometry" />
        </mxCell>
        <mxCell id="PuVu6NG7NU4pwUDtO6sR-46" value="" style="endArrow=classic;html=1;" parent="1" edge="1">
          <mxGeometry width="50" height="50" relative="1" as="geometry">
            <mxPoint x="588.3200000000002" y="330" as="sourcePoint" />
            <mxPoint x="587.9100000000001" y="370" as="targetPoint" />
          </mxGeometry>
        </mxCell>
        <mxCell id="PuVu6NG7NU4pwUDtO6sR-49" value="메뉴 수정" style="rounded=1;whiteSpace=wrap;html=1;" parent="1" vertex="1">
          <mxGeometry x="540" y="460" width="97" height="50" as="geometry" />
        </mxCell>
        <mxCell id="PuVu6NG7NU4pwUDtO6sR-50" value="" style="endArrow=classic;html=1;" parent="1" edge="1">
          <mxGeometry width="50" height="50" relative="1" as="geometry">
            <mxPoint x="588.3200000000002" y="420" as="sourcePoint" />
            <mxPoint x="587.9100000000001" y="460" as="targetPoint" />
          </mxGeometry>
        </mxCell>
        <mxCell id="PuVu6NG7NU4pwUDtO6sR-57" value="메뉴 추가" style="rounded=1;whiteSpace=wrap;html=1;" parent="1" vertex="1">
          <mxGeometry x="160" y="460" width="97" height="50" as="geometry" />
        </mxCell>
        <mxCell id="PuVu6NG7NU4pwUDtO6sR-58" value="" style="endArrow=classic;html=1;" parent="1" edge="1">
          <mxGeometry width="50" height="50" relative="1" as="geometry">
            <mxPoint x="208.32000000000016" y="330" as="sourcePoint" />
            <mxPoint x="207.91000000000008" y="370" as="targetPoint" />
          </mxGeometry>
        </mxCell>
        <mxCell id="PuVu6NG7NU4pwUDtO6sR-59" value="" style="rhombus;whiteSpace=wrap;html=1;" parent="1" vertex="1">
          <mxGeometry x="372" y="540" width="59" height="60" as="geometry" />
        </mxCell>
        <mxCell id="PuVu6NG7NU4pwUDtO6sR-60" value="" style="endArrow=classic;html=1;entryX=0;entryY=0.5;entryDx=0;entryDy=0;exitX=0.5;exitY=1;exitDx=0;exitDy=0;" parent="1" source="PuVu6NG7NU4pwUDtO6sR-57" target="PuVu6NG7NU4pwUDtO6sR-59" edge="1">
          <mxGeometry width="50" height="50" relative="1" as="geometry">
            <mxPoint x="207" y="520" as="sourcePoint" />
            <mxPoint x="257" y="370" as="targetPoint" />
            <Array as="points">
              <mxPoint x="207" y="570" />
            </Array>
          </mxGeometry>
        </mxCell>
        <mxCell id="PuVu6NG7NU4pwUDtO6sR-61" value="" style="endArrow=classic;html=1;entryX=1;entryY=0.5;entryDx=0;entryDy=0;" parent="1" target="PuVu6NG7NU4pwUDtO6sR-59" edge="1">
          <mxGeometry width="50" height="50" relative="1" as="geometry">
            <mxPoint x="587" y="510" as="sourcePoint" />
            <mxPoint x="637" y="460" as="targetPoint" />
            <Array as="points">
              <mxPoint x="587" y="570" />
            </Array>
          </mxGeometry>
        </mxCell>
        <mxCell id="PuVu6NG7NU4pwUDtO6sR-62" value="" style="endArrow=classic;html=1;entryX=0.5;entryY=0;entryDx=0;entryDy=0;" parent="1" target="PuVu6NG7NU4pwUDtO6sR-59" edge="1">
          <mxGeometry width="50" height="50" relative="1" as="geometry">
            <mxPoint x="400" y="420" as="sourcePoint" />
            <mxPoint x="450" y="370" as="targetPoint" />
          </mxGeometry>
        </mxCell>
        <mxCell id="PuVu6NG7NU4pwUDtO6sR-64" value="" style="endArrow=classic;html=1;" parent="1" edge="1">
          <mxGeometry width="50" height="50" relative="1" as="geometry">
            <mxPoint x="401.32000000000016" y="600" as="sourcePoint" />
            <mxPoint x="400.9100000000001" y="640" as="targetPoint" />
          </mxGeometry>
        </mxCell>
        <mxCell id="PuVu6NG7NU4pwUDtO6sR-65" value="" style="ellipse;html=1;shape=endState;fillColor=#000000;strokeColor=#000000;" parent="1" vertex="1">
          <mxGeometry x="386.5" y="740" width="30" height="30" as="geometry" />
        </mxCell>
        <mxCell id="PuVu6NG7NU4pwUDtO6sR-66" value="" style="rhombus;whiteSpace=wrap;html=1;" parent="1" vertex="1">
          <mxGeometry x="179" y="370" width="59" height="60" as="geometry" />
        </mxCell>
        <mxCell id="PuVu6NG7NU4pwUDtO6sR-70" value="" style="endArrow=classic;html=1;" parent="1" edge="1">
          <mxGeometry width="50" height="50" relative="1" as="geometry">
            <mxPoint x="208.32000000000016" y="430" as="sourcePoint" />
            <mxPoint x="208" y="460" as="targetPoint" />
          </mxGeometry>
        </mxCell>
        <mxCell id="PuVu6NG7NU4pwUDtO6sR-71" value="" style="endArrow=classic;html=1;" parent="1" edge="1">
          <mxGeometry width="50" height="50" relative="1" as="geometry">
            <mxPoint x="179" y="400" as="sourcePoint" />
            <mxPoint x="210" y="250" as="targetPoint" />
            <Array as="points">
              <mxPoint x="100" y="400" />
              <mxPoint x="100" y="250" />
            </Array>
          </mxGeometry>
        </mxCell>
        <mxCell id="PuVu6NG7NU4pwUDtO6sR-73" value="[미입력]" style="text;html=1;strokeColor=none;fillColor=none;align=center;verticalAlign=middle;whiteSpace=wrap;rounded=0;" parent="1" vertex="1">
          <mxGeometry x="109" y="410" width="70" height="20" as="geometry" />
        </mxCell>
        <mxCell id="XZJDbcIrMMWmVMv7A3Kb-1" value="매출 현황 요청" style="rounded=1;whiteSpace=wrap;html=1;" parent="1" vertex="1">
          <mxGeometry x="680" y="280" width="97" height="50" as="geometry" />
        </mxCell>
        <mxCell id="XZJDbcIrMMWmVMv7A3Kb-5" style="edgeStyle=orthogonalEdgeStyle;rounded=0;orthogonalLoop=1;jettySize=auto;html=1;entryX=1;entryY=0.5;entryDx=0;entryDy=0;" parent="1" source="XZJDbcIrMMWmVMv7A3Kb-2" target="sc7NBBc9Ih7PNJdXrNAd-6" edge="1">
          <mxGeometry relative="1" as="geometry">
            <Array as="points">
              <mxPoint x="729" y="670" />
            </Array>
            <mxPoint x="480" y="610" as="targetPoint" />
          </mxGeometry>
        </mxCell>
        <mxCell id="XZJDbcIrMMWmVMv7A3Kb-2" value="매출 현황 출력" style="rounded=1;whiteSpace=wrap;html=1;" parent="1" vertex="1">
          <mxGeometry x="680" y="370" width="97" height="50" as="geometry" />
        </mxCell>
        <mxCell id="XZJDbcIrMMWmVMv7A3Kb-4" value="[매출 현황 보기]" style="text;html=1;strokeColor=none;fillColor=none;align=center;verticalAlign=middle;whiteSpace=wrap;rounded=0;" parent="1" vertex="1">
          <mxGeometry x="437" width="103" height="20" as="geometry" />
        </mxCell>
        <mxCell id="sc7NBBc9Ih7PNJdXrNAd-2" value="" style="rhombus;whiteSpace=wrap;html=1;" vertex="1" parent="1">
          <mxGeometry x="368.5" y="-10" width="59" height="60" as="geometry" />
        </mxCell>
        <mxCell id="sc7NBBc9Ih7PNJdXrNAd-7" style="edgeStyle=orthogonalEdgeStyle;rounded=0;orthogonalLoop=1;jettySize=auto;html=1;entryX=0.5;entryY=0;entryDx=0;entryDy=0;" edge="1" parent="1" source="sc7NBBc9Ih7PNJdXrNAd-6" target="PuVu6NG7NU4pwUDtO6sR-65">
          <mxGeometry relative="1" as="geometry" />
        </mxCell>
        <mxCell id="sc7NBBc9Ih7PNJdXrNAd-6" value="" style="rhombus;whiteSpace=wrap;html=1;" vertex="1" parent="1">
          <mxGeometry x="372" y="640" width="59" height="60" as="geometry" />
        </mxCell>
        <mxCell id="sc7NBBc9Ih7PNJdXrNAd-8" value="[메뉴 관리]" style="text;html=1;strokeColor=none;fillColor=none;align=center;verticalAlign=middle;whiteSpace=wrap;rounded=0;" vertex="1" parent="1">
          <mxGeometry x="330" y="60" width="67" height="20" as="geometry" />
        </mxCell>
      </root>
    </mxGraphModel>
  </diagram>
</mxfile>
